<svg width="165" height="165" viewBox="0 0 165 165" fill="none" xmlns="http://www.w3.org/2000/svg">
<g clip-path="url(#clip0_1191_60)">
<path d="M110 137.5C96.5152 137.5 85.2897 127.794 82.9486 114.975C82.4525 112.258 80.2614 110 77.5 110H60C57.2386 110 54.9762 112.246 55.2238 114.996C57.7476 143.034 81.3049 165 110 165C138.695 165 162.252 143.034 164.776 114.996C165.024 112.246 162.761 110 160 110H142.5C139.739 110 137.548 112.258 137.051 114.975C134.71 127.794 123.485 137.5 110 137.5Z" fill="white"/>
<path d="M27.5154 109.984C27.5154 123.483 37.2212 134.71 50.0405 137.051C52.757 137.547 55.0154 139.738 55.0154 142.5V160C55.0154 162.761 52.7694 165.024 50.0191 164.776C21.9803 162.252 0 138.694 0 109.984C0 81.2746 21.9803 57.7303 50.0191 55.208C52.7694 54.9606 55.0154 57.223 55.0154 59.9844V77.4844C55.0154 80.2458 52.757 82.4368 50.0405 82.9329C37.2212 85.2741 27.5154 96.4995 27.5154 109.984Z" fill="white"/>
<path d="M55 27.5C68.4848 27.5 79.7103 37.2059 82.0514 50.0251C82.5475 52.7416 84.7386 55 87.5 55H105C107.761 55 110.024 52.754 109.776 50.0037C107.252 21.9664 83.6951 0 55 0C26.3194 0 2.7492 21.9664 0.223933 50.0037C-0.0237806 52.754 2.23858 55 5 55H22.5C25.2614 55 27.4525 52.7416 27.9486 50.0251C30.2897 37.2058 41.5152 27.5 55 27.5Z" fill="white"/>
<path d="M137.5 55C137.5 68.4848 127.794 79.7103 114.975 82.0514C112.258 82.5475 110 84.7386 110 87.5V105C110 107.761 112.246 110.024 114.996 109.776C143.034 107.252 165 83.6951 165 55C165 26.3049 143.034 2.74759 114.996 0.2238C112.246 -0.0237704 110 2.23858 110 5V22.5C110 25.2614 112.258 27.4525 114.975 27.9486C127.794 30.2897 137.5 41.5152 137.5 55Z" fill="white"/>
</g>
<defs>
<clipPath id="clip0_1191_60">
<rect width="165" height="165" fill="white"/>
</clipPath>
</defs>
</svg>
